<svg xmlns="http://www.w3.org/2000/svg" width="3750" height="2500" viewBox="0 0 3750 2500">
  <defs>
    <style>
      .cls-1 {
        fill: #4361ee;
      }

      .cls-1, .cls-2 {
        fill-rule: evenodd;
      }

      .cls-2 {
        fill: #ffd60a;
      }
    </style>
  </defs>
  <path id="Rectangle_1_copie_3" data-name="Rectangle 1 copie 3" class="cls-1" d="M1945.32,463.935L993.652-1642.77c-152.678-337.98-2.458-735.75,335.528-888.42s735.75-2.46,888.42,335.52L3169.27-88.963c152.68,337.985,2.46,735.747-335.53,888.425S2097.99,801.92,1945.32,463.935Z"/>
  <path class="cls-2" d="M2238.96,884L1832.04-1391.59c-65.28-365.08,177.75-713.96,542.83-779.24s713.96,177.75,779.24,542.83L3561.03,647.586c65.28,365.084-177.75,713.954-542.83,779.244S2304.24,1249.07,2238.96,884Z"/>
  <path id="Rectangle_1_copie_2" data-name="Rectangle 1 copie 2" class="cls-1" d="M2555.4,1310.17L3319.69-871.515c122.62-350.015,505.76-534.355,855.77-411.735s534.36,505.757,411.74,855.771L3822.91,1754.2c-122.61,350.02-505.76,534.36-855.77,411.74S2432.78,1660.18,2555.4,1310.17Z"/>
</svg>
