<svg xmlns="http://www.w3.org/2000/svg" viewBox="0 0 500 500" height="500" width="500"><g fill="#1c4aa8"><path d="M237.89999999999998 204.85a21.425 21.425 0 0 0 12.1 4.699999999999999 20 20 0 0 0 14.350000000000001 -4.875 17.675 17.675 0 0 0 5.8999999999999995 -13.825000000000001 15 15 0 0 0 -7.7 -12.75c-15 -7.05 -20 -2.175 -20.875 -1.525a23.025000000000002 23.025000000000002 0 0 0 -8.65 17.9 13.600000000000001 13.600000000000001 0 0 0 1.675 6.925 12.8 12.8 0 0 0 3.2 3.4499999999999997z" stroke-width="2.5"></path><path d="M250.67499999999998 215a22.85 22.85 0 0 0 22.85 -13.925 27.174999999999997 27.174999999999997 0 0 0 2.75 -15.275c-0.875 -5.45 -4.8 -8.924999999999999 -9.3 -11.7a52.675 52.675 0 0 0 -16.45 -5.9750000000000005 16.175 16.175 0 0 0 -12.85 3.5999999999999996 25.7 25.7 0 0 0 -7.9 12.5c-1.675 4.825 -3.4499999999999997 10.2 -2.05 15.3 2.7 10.1 13.45 14.850000000000001 22.95 15.475000000000001zm-17.25 -36.575c2.925 -5.175 8.525 -10 14.775 -9.75s15 4.175 18.275 6.3c5.675 3.5999999999999996 9.350000000000001 7.975 8.9 15a29.3 29.3 0 0 1 -5 14.424999999999999c-7.3 10.725 -21.125 11.875 -32.1 6.025a18 18 0 0 1 -10 -13.85c-0.42500000000000004 -5.625 2.3499999999999996 -13.075000000000001 5.15 -18.05zM98.10000000000001 150.725c0.22499999999999998 1.875 1.625 1.775 1.625 1.775s18.925 -0.775 20.7 -1.4000000000000001 1.2 -1.9500000000000002 1.25 -3.65a1.45 1.45 0 0 0 -1.45 -1.675l-20.5 1.4000000000000001c-1.525 0.1 -1.825 1.675 -1.625 3.55zM84.3 175c-2.7750000000000004 -10 -3.125 -33.725 -3.3000000000000003 -40.275h-0.17500000000000002c-0.15 13.25 -0.42500000000000004 27.5 3.3000000000000003 40.324999999999996 0.025 -0.05 0.2 -0.05 0.17500000000000002 -0.05zm29.925 8.125c0.375 0 0.2 -0.65 -0.17500000000000002 -0.5750000000000001 -17.5 3.675 -26 0 -25.225 0.4 7.275 4.175 17.7 1.775 25.4 0.17500000000000002zm231.70000000000002 -120.05000000000001c-0.65 -0.125 -1.85 -0.15 -1.275 -1.225 0.375 -0.675 0.8999999999999999 -1.3250000000000002 0.35000000000000003 -2.0749999999999997 0 -0.125 -0.375 0 -0.3 0.125 0.25 0.675 -0.6 1.35 -0.8250000000000001 1.9a1.35 1.35 0 0 0 0 1.3c0.725 0.95 3.5749999999999997 0.95 2.925 0.42500000000000004a2.05 2.05 0 0 0 -0.875 -0.44999999999999996zm10.725 -0.5750000000000001a6.550000000000001 6.550000000000001 0 0 1 -0.95 4.074999999999999 0.2 0.2 0 0 0 0.35000000000000003 0.2 6.45 6.45 0 0 0 1 -5.775c0 -0.17500000000000002 -0.275 -0.25 -0.35000000000000003 0a5.875 5.875 0 0 1 -5.550000000000001 4.5c-0.17500000000000002 0 0 0.25 0 0.275a5.625 5.625 0 0 0 5.5 -3.2750000000000004zm-7.275 -6.175000000000001c-0.125 0.5 -0.5 2.5 -0.2 2.9a0.375 0.375 0 0 0 0.5750000000000001 0 6.775 6.775 0 0 0 0.275 -2.875c-0.025 -0.275 -0.5750000000000001 -0.4 -0.65 -0.025zm-8.7 -0.5a6.4 6.4 0 0 0 0 2.75 0.35000000000000003 0.35000000000000003 0 0 0 0.5750000000000001 0 10.45 10.45 0 0 0 0.125 -2.6750000000000003 0.325 0.325 0 0 0 -0.7000000000000001 -0.075zm-1.625 -1.775c-0.2 0.25 0.15 0.625 0.375 0.375a4.575 4.575 0 0 1 1.9 -1.4249999999999998v-0.275c-0.925 -0.22499999999999998 -1.775 0.725 -2.275 1.3250000000000002zm9.7 -0.42500000000000004c0.7000000000000001 0.22499999999999998 2.5 2.5 2.5 1.45 0 -0.525 -1.75 -1.9 -2.275 -2.05s-0.625 0.475 -0.22499999999999998 0.6zm39.125 131.975c1.4749999999999999 3.5 7.3 4.325 10.45 5.225 0.2 0 0.375 -0.275 0.15 -0.375 -1.6 -0.7000000000000001 -9.25 -2.05 -10.325 -7.05 -0.875 -4.074999999999999 -1.05 -8.299999999999999 -2.25 -12.325a46.550000000000004 46.550000000000004 0 0 0 21.299999999999997 -5.525 90.75 90.75 0 0 0 1.3 13.55 0.2 0.2 0 0 0 0.4 0 65.525 65.525 0 0 0 -1.55 -14.350000000000001c-7 5 -21.924999999999997 5.9750000000000005 -21.9 6.15a122.72500000000001 122.72500000000001 0 0 0 2.425 14.7zM190.6 120.55a36.525 36.525 0 0 0 -7.800000000000001 -6.3c-0.3 -0.2 -0.7000000000000001 0.2 -0.5 0.525 2.3000000000000003 3.8 4.225 7.7749999999999995 6.2 11.775 0 0.2 0.475 0 0.4 -0.17500000000000002a68.5 68.5 0 0 0 -5 -10.549999999999999c2.275 1.6 4.4 3.35 6.6000000000000005 5 0.05 0.15 0.22499999999999998 -0.125 0.1 -0.275zm8.75 -4.025a53.425000000000004 53.425000000000004 0 0 0 1.5 -10.525 56.525 56.525 0 0 1 2.5 11.7 0.2 0.2 0 0 0 0.375 0c0.44999999999999996 -5 -1.825 -9.549999999999999 -2.8249999999999997 -14.325000000000001 0 -0.4 -0.675 -0.3 -0.7000000000000001 0 -0.2 4.375 -0.8500000000000001 8.65 -1.35 12.975000000000001 0.025 0.35000000000000003 0.42500000000000004 0.4 0.5 0.17500000000000002zM207.5 153.97500000000002c0.4 -3.5749999999999997 0.95 -7.175000000000001 1.025 -10.774999999999999 0 -0.25 -0.44999999999999996 -0.325 -0.5 0a89.125 89.125 0 0 0 -1.025 8.95c-0.65 -2.5 -1.35 -5 -2.15 -7.5a0.2 0.2 0 0 0 -0.4 0c0.675 3.15 1.55 6.2749999999999995 2.5 9.399999999999999 -0.05 0.4 0.55 0.275 0.55 -0.075zm18.125 -25.6a35.375 35.375 0 0 1 -16.65 0s-0.2 0 0 0.2a21.099999999999998 21.099999999999998 0 0 0 12.5 1.35 42.75 42.75 0 0 0 -7.75 3.975c-0.2 0 0 0.5 0.15 0.4 4.050000000000001 -1.6 7.95 -3.525 12.024999999999999 -5a0.44999999999999996 0.44999999999999996 0 0 0 -0.275 -0.925zm-13.725000000000001 10.875a0.25 0.25 0 0 0 0 0.475 26.8 26.8 0 0 0 6.625 1.1c0.42500000000000004 0 0.5750000000000001 -0.6 0.22499999999999998 -0.775 -2.6500000000000004 -1.25 -5.300000000000001 -2.5 -8.025 -3.625 -0.25 0 -0.42500000000000004 0.3 -0.2 0.42500000000000004 1.675 0.95 3.375 1.7999999999999998 5 2.5a13.925 13.925 0 0 0 -3.625 -0.1zm-11.325000000000001 0.44999999999999996a0.325 0.325 0 0 0 -0.475 -0.475c-2.6500000000000004 2.175 -11.850000000000001 10.9 -13.25 13.5a0.35000000000000003 0.35000000000000003 0 0 0 0.6 0.35000000000000003c3.2 -5.3500000000000005 9.200000000000001 -8.6 13.125 -13.375zm1.5 -14.475c-0.3 3.3000000000000003 -0.8500000000000001 6.675 -0.8500000000000001 10 0 0.275 0.4 0.35000000000000003 0.44999999999999996 0 0.5750000000000001 -3.3000000000000003 0.65 -6.75 0.925 -10 0.025 -0.22499999999999998 -0.5 -0.22499999999999998 -0.525 0zm-8.7 4.95c1.7249999999999999 1.525 3.325 3.2750000000000004 5.125 4.699999999999999 0.17500000000000002 0.15 0.475 0 0.325 -0.25a34.525 34.525 0 0 0 -5 -5c-0.325 -0.1 -0.725 0.375 -0.44999999999999996 0.55zm-39.775 -11.15a10.625 10.625 0 0 0 -1 1.1500000000000001c-0.3 0.375 0.325 0.8250000000000001 0.625 0.5a6.1 6.1 0 0 1 0.725 -0.675 2.25 2.25 0 0 0 0.17500000000000002 0.675 0.4 0.4 0 0 0 0.875 -0.17500000000000002 1.4249999999999998 1.4249999999999998 0 0 0 0 -0.325 9.475 9.475 0 0 0 1 0.75 0.3 0.3 0 0 0 0.4 -0.4 7 7 0 0 0 -1.225 -1.375 125.64999999999999 125.64999999999999 0 0 1 22.799999999999997 7.925c0.375 0.15 0.6 -0.44999999999999996 0.275 -0.65 -3.55 -2 -18.675 -7.5 -22.5 -7.65a3.2 3.2 0 0 0 1.275 -0.8999999999999999 0.375 0.375 0 0 0 -0.22499999999999998 -0.525 2.8000000000000003 2.8000000000000003 0 0 0 -2.05 0.75s-0.275 -1.7999999999999998 -0.4 -2.6750000000000003c0 -0.375 -0.675 -0.275 -0.65 0 0 0.875 0 1.775 0.15 2.6500000000000004l-1.675 -1.075c-0.375 -0.22499999999999998 -0.7000000000000001 0.35000000000000003 -0.325 0.6s1.1749999999999998 0.9750000000000001 1.75 1.4249999999999998zm19.424999999999997 -30.975 1.375 0.3c0 0.2 0 0.375 0.17500000000000002 0.5750000000000001a3.975 3.975 0 0 0 -0.15 0.925 0.4 0.4 0 0 0 0.6 0.35000000000000003c0 0.25 0.2 0.5 0.325 0.75s0.625 0.15 0.6 -0.15a8.875 8.875 0 0 0 -0.3 -1.625c0 -0.17500000000000002 6.925 10.375 10.475000000000001 15.325a97.8 97.8 0 0 1 9.1 15.649999999999999c0 0.3 0.6 0 0.525 -0.2 -3.1 -11.75 -13.049999999999999 -20.674999999999997 -19.025000000000002 -30.975a3.65 3.65 0 0 0 1.35 0.22499999999999998 0.35000000000000003 0.35000000000000003 0 0 0 0.25 -0.5750000000000001 6.875 6.875 0 0 0 -2.5 -1.025 14.524999999999999 14.524999999999999 0 0 0 0 -2.125c0 -0.525 -0.8500000000000001 -0.55 -0.8250000000000001 0a9.85 9.85 0 0 1 0 1.7000000000000002c-0.35000000000000003 -0.8 -0.725 -1.6 -1.1 -2.3499999999999996s-0.7000000000000001 0 -0.525 0.325 0.525 1.45 0.775 2.175h-0.95c-0.5 -0.05 -0.7000000000000001 0.625 -0.17500000000000002 0.725zm50.300000000000004 72.275a1.6500000000000001 1.6500000000000001 0 0 0 -1 -0.875l0.925 -1.775c0.22499999999999998 -0.44999999999999996 -0.44999999999999996 -0.8500000000000001 -0.7000000000000001 -0.4l-1.025 1.85a37.5 37.5 0 0 0 -9.375 -15.2 0.325 0.325 0 0 0 -0.475 0.475c7.5 7.675 8.75 13.75 8.8 14.25l-0.65 -0.275c-0.375 -0.17500000000000002 -0.65 0.5 -0.275 0.675l1.05 0.55a5.625 5.625 0 0 0 0.15 0.8999999999999999 3.325 3.325 0 0 0 -0.525 1.35c0 0.3 0.35000000000000003 0.35000000000000003 0.525 0.22499999999999998a2 2 0 0 0 0.325 -0.325 9.6 9.6 0 0 0 0.35000000000000003 0.8999999999999999 0.35000000000000003 0.35000000000000003 0 0 0 0.65 -0.17500000000000002c0 -0.675 -0.2 -2.15 -0.2 -2.175a1.825 1.825 0 0 0 1.25 0.35000000000000003 0.275 0.275 0 0 0 0.2 -0.325zm-37.675 -4.85a2.8000000000000003 2.8000000000000003 0 0 1 0.42500000000000004 -0.5c0.3 0.5750000000000001 0.75 0.6 0.8250000000000001 0A0.95 0.95 0 0 0 187.5 155a0.25 0.25 0 0 0 0 -0.375 6.45 6.45 0 0 0 -0.6 -0.475 0.375 0.375 0 0 0 -0.25 -0.44999999999999996c0 -0.4 -0.275 -0.8250000000000001 -0.42500000000000004 -1.2s-1.1 -0.325 -0.8999999999999999 0.22499999999999998a12.925 12.925 0 0 1 0.44999999999999996 1.275l-1.1749999999999998 -0.22499999999999998a0.25 0.25 0 0 0 0 0.5l0.8250000000000001 0.275A5.9750000000000005 5.9750000000000005 0 0 0 185 155a0.4 0.4 0 0 0 0.65 0.475zm-45.025000000000006 -7.275a43.025000000000006 43.025000000000006 0 0 1 27.5 -13.125 0.275 0.275 0 1 0 0 -0.55 36.05 36.05 0 0 0 -27.650000000000002 13.5s0.05 0.275 0.15 0.17500000000000002zm-2.7750000000000004 3.05a2.5 2.5 0 0 0 1.3250000000000002 -0.875h0.4c0.1 0 0.17500000000000002 -0.475 0.17500000000000002 -0.55a1.25 1.25 0 0 0 0.775 -0.25c0.2 -0.15 0 -0.44999999999999996 -0.125 -0.525a1.55 1.55 0 0 0 -0.475 0 2.9 2.9 0 0 0 0 -0.44999999999999996c0 -0.275 -0.375 -0.325 -0.525 -0.125v0.125a4.074999999999999 4.074999999999999 0 0 0 -0.75 -1.275c-0.17500000000000002 -0.17500000000000002 -0.525 0 -0.42500000000000004 0.25s0.325 0.925 0.475 1.375l-0.55 -0.2a0.3 0.3 0 0 0 -0.3 0.525 4.475 4.475 0 0 0 0.8500000000000001 0.42500000000000004 13.25 13.25 0 0 0 -1.1500000000000001 1.25c-0.05 0.125 0.1 0.35000000000000003 0.3 0.3z" stroke-width="2.5"></path><path d="M442.70000000000005 340c5.45 -0.125 11.274999999999999 -0.275 16.75 -0.44999999999999996a53.449999999999996 53.449999999999996 0 0 0 0.625 -11.274999999999999c-6.800000000000001 0 -21.575000000000003 0 -38.050000000000004 0.325a27.25 27.25 0 0 0 -2.6500000000000004 -14.399999999999999 53.875 53.875 0 0 0 -0.375 -8.225l4.325 -1.075s-7.05 -55.675 -8.325 -62.25a32.5 32.5 0 0 1 -1.125 -8.149999999999999 246.82500000000002 246.82500000000002 0 0 0 3.325 -34.375 44.825 44.825 0 0 0 4.675000000000001 -2.5 0.8500000000000001 0.8500000000000001 0 0 0 0.2 -0.4c-1.7249999999999999 -15.25 -11.775 -76 -16.15 -92.15 1.1749999999999998 0 5.375 -0.875 7.05 -7.5 0 0 -5 4.875 -7.175000000000001 -0.6s2.5 -6.5249999999999995 2.5 -6.5249999999999995 7.075 -0.625 2.5 -10.125a17.725 17.725 0 0 0 -13.3 -10.2s3.5 -23.775 -8.125 -23.975a12.925 12.925 0 0 0 -8.85 2.05 6.1 6.1 0 0 0 -3.375 -1.9c-0.42500000000000004 -3.75 -4.225 -29.525000000000002 -30.150000000000002 -17.5l4.175 1.1749999999999998s0.775 0.325 0 0.35000000000000003 -5.3500000000000005 -0.775 -5.3500000000000005 -0.775 -8.4 -0.7000000000000001 -10.45 10.625a42.225 42.225 0 0 0 -0.125 9.075l5.5 0.375a2.5 2.5 0 0 0 -1.225 0.475c-5.2749999999999995 3.4250000000000003 -3.675 13.774999999999999 2.5 12.225a25 25 0 0 0 2.25 7.5 9.325 9.325 0 0 0 7.65 3.2c0 0.8999999999999999 0 4.375 0.15 5.625a64.05 64.05 0 0 0 -34.25 24.224999999999998c-13.700000000000001 -7.824999999999999 -24.4 -13.3 -24.625 -12.875a30.299999999999997 30.299999999999997 0 0 0 -1.625 3.25 13.600000000000001 13.600000000000001 0 0 1 -6.4 -5.625c-0.9750000000000001 -1.9 -1.675 -3.95 -2.8249999999999997 -5.75s-2.6500000000000004 -3.075 -4.325 -2.5l-5.25 -12.5S262.5 40 248.35000000000002 44.325c0 0 -5.775 1.25 -14.375 19.225S207.5 121 207.5 121l0.95 6.875s42.175000000000004 -20.375 88.75 -0.375a365.575 365.575 0 0 1 17.275 60.775 589.2 589.2 0 0 1 7.1499999999999995 66.3c-47.275 -10.4 -98.97500000000001 -12.5 -144.025 3.4749999999999996 0.55 -5.550000000000001 1.2 -11.075 1.9 -16.599999999999998 6.8999999999999995 -52.85 18.225 -84.32499999999999 22.675 -101.22500000000001 0 -0.3 -0.35000000000000003 -0.4 -0.475 0 -6.425 16.299999999999997 -13.799999999999999 46.925 -17.224999999999998 64.025 -3.5999999999999996 17.975 -8.774999999999999 61.75 -9.05 65.25a224.54999999999998 224.54999999999998 0 0 0 -0.8500000000000001 29.575c-5 4.825 -25 24.025 -40 39.325 -1.4249999999999998 -35.45 -2.0749999999999997 -75.6 -3.775 -97.225 12.05 -2.225 28.174999999999997 -1.7249999999999999 36.725 -12.5A38.3 38.3 0 0 0 173.07500000000002 217.5a133.375 133.375 0 0 0 4.25 -14.25 71.2 71.2 0 0 0 1.05 -15.75c5 -0.8250000000000001 5.475 -15.149999999999999 5.625 -18.425 2.6750000000000003 -1.4749999999999999 3 -3.9250000000000003 2.125 -4.425 1.4000000000000001 -1.4000000000000001 1.4000000000000001 -3.2 0.775 -3.4749999999999996a1.85 1.85 0 0 0 0 -1.3c-0.17500000000000002 -0.8500000000000001 -1.025 -1.1500000000000001 -1.7999999999999998 -1.3a17.125 17.125 0 0 0 -3.9250000000000003 0c0.42500000000000004 -5.5 0.8 -11.100000000000001 0.8500000000000001 -16.599999999999998a23.25 23.25 0 0 0 6.625 -0.42500000000000004 3.725 3.725 0 0 0 0.875 -2.5c3.825 -0.35000000000000003 7.5 0 11.425 -0.55 1.05 -0.15 0.675 -1.6 -0.17500000000000002 -1.35 -2.5 0.325 -10 0.55 -11.225000000000001 1.1 0 -0.525 -0.5 -1.025 -0.6 -1.375s-20.75 -0.775 -21.099999999999998 0.25c0 0.15 -0.925 4.125 0 5s8 0 9.85 0c-0.325 4.85 -0.925 9.75 -0.8500000000000001 14.625 -6.3 -2.25 -11 6.1 -10.425 12.7a217.5 217.5 0 0 0 -25.6 21.05c-0.15 0.15 0 0.44999999999999996 0 0.475l1 0.8999999999999999A40.525000000000006 40.525000000000006 0 0 0 136.05 197.5a69.075 69.075 0 0 0 -14.75 -12.5l0.35000000000000003 -0.375c2.3499999999999996 -3.1 2.5 -8.5 2.5 -12.225a130.575 130.575 0 0 0 -1.3 -18.75 5.550000000000001 5.550000000000001 0 0 0 2.375 -6.15 6.925 6.925 0 0 0 -6.125 -5.375c0 -8.625 -3.675 -17.5 -11.825000000000001 -21.525 -7.65 -3.75 -18.875 -1.4249999999999998 -25.65 3.25a10.95 10.95 0 0 0 -5 8.725000000000001c-0.325 0 -9.1 1.9500000000000002 -8.299999999999999 13.75 -2.925 0.925 -2.9499999999999997 6.8500000000000005 0 6.725 0.275 2.125 3.225 18 4.275 22.5 -19.175 3.8 -38.8 11.45 -50.5 27.9 -11.375 15.95 -13.3 38.224999999999994 -2.375 55a44.699999999999996 44.699999999999996 0 0 0 16.125 15 25.625 25.625 0 0 0 -0.475 7.8500000000000005 5.75 5.75 0 0 0 2.875 3.4749999999999996c-2.175 4.2 -11.850000000000001 27.725 3.25 72.725a16.025 16.025 0 0 1 0.8250000000000001 7.9c-0.8250000000000001 3.55 -1.9 62.5 -1.9 62.5a21.299999999999997 21.299999999999997 0 0 0 5.175 2.8000000000000003 49.400000000000006 49.400000000000006 0 0 1 -0.8500000000000001 19.675c8.475 5 30 0 30 0 1.05 -2.7750000000000004 -1.025 -3.4749999999999996 -1.025 -3.4749999999999996a16.125 16.125 0 0 1 -10 -8.825c0 -0.15 0 -3.175 0.125 -4.625a68.32499999999999 68.32499999999999 0 0 0 7 -0.7000000000000001l5.425 -27.675c6.5 0.15 16.05 -0.6 24.025 -0.75l6.7 24.3 8.975 -1.55a36.375 36.375 0 0 1 -0.8 18.275c6.425 4.3 21.099999999999998 1.4000000000000001 25.674999999999997 0.35000000000000003 4.050000000000001 10.575000000000001 7.2250000000000005 18.725 8.075 20.674999999999997 2.9749999999999996 6.75 4.699999999999999 0 4.699999999999999 0l13.149999999999999 -51 31.95 -28.875a15 15 0 0 0 4.8 2.1c0.8999999999999999 3.2750000000000004 6.825 25 10 29.3 6.425 9.125 22.875 11.875 33.925 12.225 1.45 19.325000000000003 2.5 33.849999999999994 2.8249999999999997 35.325a5.525 5.525 0 0 0 4.225 5.15c3.75 -0.3 3.85 -4.625 3.85 -4.625l-0.325 -35.975a113.75 113.75 0 0 0 22.775 -4.5c-5.550000000000001 19.650000000000002 -10.35 37.075 -12.5 45.324999999999996a0.44999999999999996 0.44999999999999996 0 0 0 0.8500000000000001 0.22499999999999998c1.9 -7.025 3.775 -14.05 5.675 -21.075 6.725 1.1749999999999998 35.525000000000006 1.075 42.925000000000004 0.725 0 0 -4.575 14.8 -6.3 22.3a0.4 0.4 0 0 0 0.75 0.2c3.525 -10 15.2 -50.375 17.5 -60.8l3.525 3.175 13.125 51s1.7249999999999999 6.725 4.699999999999999 0 33.325 -87.30000000000001 33.325 -87.30000000000001 6.2749999999999995 -13.600000000000001 -9.525 -30.825c-2.125 -2.3000000000000003 -4.575 -5 -7.2250000000000005 -7.65 7.725 1 28.224999999999998 0 32.5 0 3.025 11.025 35.575 111.125 42.625 133.475 0.125 0.4 0.775 0.22499999999999998 0.625 -0.17500000000000002 -5 -15.4 -9.85 -30.875 -14.725 -46.325 14.5 0.275 29.025 -0.35000000000000003 43.5 -0.55q7.125 21.075 14.2 42.15c0.2 0.5750000000000001 1.1 0.325 0.8999999999999999 -0.25 -7.25 -22.174999999999997 -39.95 -119.475 -44.55 -129.125zm-308.45 -1.3c-2.9499999999999997 3 -7.824999999999999 8.05 -10.575000000000001 11.274999999999999 -2.175 -1.1749999999999998 -4.5 -2.125 -6.65 -3.4000000000000004 -18.2 -10.725 -33.8 -38.475 -23.575 -68.4 2.5 -0.475 5.8 -1.85 5.625 -4.7749999999999995 1.675 -0.875 4.275 -2.5 3.125 -4.675000000000001 1.7999999999999998 -1.2 2.5 -3.25 0.5 -3.725a36.25 36.25 0 0 0 -4.65 -0.3 51.125 51.125 0 0 1 18.9 -19.025000000000002 45 45 0 0 1 13.200000000000001 -4.5c1.3 14.575 4.074999999999999 97.225 4.1 97.52499999999999zm-37.275 -74h-1.925a10.45 10.45 0 0 0 2.5 -1.575c-0.22499999999999998 0.475 -0.475 0.925 -0.7000000000000001 1.4000000000000001a0.675 0.675 0 0 0 0.125 0.17500000000000002zm-3 0a0.325 0.325 0 0 0 0.22499999999999998 0.525c1.4000000000000001 0 9.525 -0.15 8.275 2.325s-7 2.925 -8.5 2.875c-0.25 0 -0.25 0.375 0 0.4a11.65 11.65 0 0 0 7.824999999999999 -1.825c0.42500000000000004 2.05 -1.9500000000000002 3.35 -3.4250000000000003 4.1s-3.9250000000000003 1.975 -5.15 1.05c-0.17500000000000002 -0.15 -0.42500000000000004 0.17500000000000002 -0.25 0.325 1.35 1.125 3.825 0 5.425 -0.775 -0.4 5.2749999999999995 -11.325000000000001 3.9000000000000004 -14.5 3.7a41.6 41.6 0 0 0 -12 1.625 65.77499999999999 65.77499999999999 0 0 1 -14.65 2.1 77.85 77.85 0 0 1 -15.4 -1.85A151.525 151.525 0 0 1 55.5 245c3.85 3.4749999999999996 7.9 6.7 12.05 9.85a67.875 67.875 0 0 0 13.65 9.075 10.35 10.35 0 0 0 8.625 -0.6 42.775 42.775 0 0 1 7.325 -3.325c3.175 1.75 -3.15 4.675000000000001 -3.175 4.725zm77.5 -47.1A29.625 29.625 0 0 1 164.3 230c-7.325 6.625 -17.775000000000002 7.5 -27.1 8.55 -2.175 0.25 -4.3 0.5750000000000001 -6.4 0.9750000000000001 0 -1.2 -0.17500000000000002 -2.5 -0.3 -3.5999999999999996 11.525 5 28.725 -12.75 30.950000000000003 -25.6l0.8999999999999999 0.8250000000000001a0.17500000000000002 0.17500000000000002 0 0 0 0.325 0s9.825000000000001 -21.575000000000003 11.274999999999999 -27.275a4.325 4.325 0 0 0 2.325 3.325l0.675 0.35000000000000003c0.55 0.5 1.1749999999999998 11.675 -5.5 30.075zm9 -47.975q-2.3000000000000003 0.275 -1.575 -3.075a13.35 13.35 0 0 0 6.8999999999999995 -1.55c1.05 3.5 -5.0249999999999995 4.6000000000000005 -5.3500000000000005 4.65zm-1.7249999999999999 -3.4250000000000003c-2.175 -0.925 -1.025 -2.15 -0.475 -3.1a2.5 2.5 0 0 0 2.5 -0.525 13 13 0 0 0 5.6499999999999995 -0.725c1.75 3.675 -6.8999999999999995 4.725 -7.7 4.375zm7.05 -6.8999999999999995c1.075 0.6 0.775 1.6 0 2.225a17.5 17.5 0 0 1 -4.85 0.525 2.5 2.5 0 0 0 -0.75 -2.9749999999999996 22.25 22.25 0 0 1 5.575 0.25zm-14.65 -17.775000000000002c-1.275 0 -2.5 0.15 -2.8249999999999997 -1.125a12.5 12.5 0 0 1 0.15 -3.1c3.5 0 14.2 -0.17500000000000002 16.025 -0.22499999999999998h2.5c3 0.2 2.7750000000000004 3.85 0 4.1 -1.55 0.15 -14.075 0.475 -15.875 0.375zm7.175000000000001 0.525h3.625a123.5 123.5 0 0 0 -1.275 16.65h-0.8500000000000001a6.825 6.825 0 0 0 -2.15 -1.7249999999999999c-0.17500000000000002 -4.975 1.3 -9.975000000000001 0.625 -14.9zm-36.800000000000004 48.75c17.75 -16.175 25.8 -20.55 25.775000000000002 -21.150000000000002 0 -4.175 0.775 -8.825 4.475 -11.35a5.300000000000001 5.300000000000001 0 0 1 8.35 2.5c0.4 2.8000000000000003 -2.8000000000000003 1.4749999999999999 -4.2 1.1500000000000001 -0.35000000000000003 0 -1.3250000000000002 0.5750000000000001 1.975 1.1749999999999998a1.925 1.925 0 0 0 0.65 3.4499999999999997c-1.825 2.15 0.44999999999999996 5 5 2.8499999999999996a75.9 75.9 0 0 1 -2.7750000000000004 15c-8.55 8.45 -4.825 -15.3 -4.75 -21.575000000000003h-0.22499999999999998a151.7 151.7 0 0 0 -1.925 20.45c-2.0749999999999997 4.074999999999999 -9.3 22.5 -11.525 27.15a158.2 158.2 0 0 0 -20.825 -19.650000000000002zm-5.75 7.05a18.174999999999997 18.174999999999997 0 0 0 -2.1 3.15c0 0.2 0.15 0.375 0.275 0.22499999999999998 1.35 -1.45 8.6 -8.95 8.625 -8.975 6.324999999999999 5.775 18.400000000000002 17.75 18.375 17.75 -2.275 12 -17.5 28.975 -30.474999999999998 25.375 -1.525 -16.200000000000003 -4.475 -34.325 -10.774999999999999 -49.25a7.25 7.25 0 0 0 1.45 -1.125c2.4 2.6750000000000003 12.275 10.8 14.625 12.85zm-11.45 -51.050000000000004c0.625 1.6500000000000001 0.7000000000000001 4.6000000000000005 -0.75 5.699999999999999 -3.825 2.8499999999999996 -9.15 2.5 -11.525 3 -2.8499999999999996 0.42500000000000004 -18.925 0.6 -18.95 -4.525 0 0 -0.5 -4.65 3.05 -6.025a22.225 22.225 0 0 1 3.375 -0.8500000000000001c2.9749999999999996 -0.65 22.200000000000003 -4.425 24.8 2.7zm-41.349999999999994 -23.2c7.5 -3.225 16.200000000000003 -6.25 23.95 -2.5s11.225000000000001 12.5 11.5 20.8c-4.65 -0.75 -19.424999999999997 0.675 -23.925 3.025 -2.375 1.25 -1.875 5.9750000000000005 -1.875 5.9750000000000005 0 3.15 1.35 6.05 18.400000000000002 5.425a27.025000000000002 27.025000000000002 0 0 0 11.399999999999999 -2.5c0.4 5.375 1.025 10.75 1.2 16.1 0.17500000000000002 5 0 13.95 -5.5 16.025A50.775 50.775 0 0 1 102.5 188.75c-5.175 0.2 -14.299999999999999 0.925 -17.075 -4.2 -8.125 -15 -6.775 -28.424999999999997 -8.375 -47.125 -0.275 -5.5 0.95 -10.700000000000001 5.925000000000001 -13.825000000000001zm-16.175 25.175c0.8500000000000001 -2.5 4.35 -2.6500000000000004 10 -4.875 0.15 1.775 0.275 3.55 0.35000000000000003 5.300000000000001l-8.575000000000001 3.125c-1.85 0.475 -2.2 -2.325 -1.775 -3.55zm10.975 10.774999999999999a62.5 62.5 0 0 0 2.225 14.1 60.35 60.35 0 0 0 3.65 9.549999999999999 10.725 10.725 0 0 1 -10.475000000000001 -7.5c-0.4 -3.625 -0.875 -7.3 -1.4000000000000001 -10.95 1.4749999999999999 0.25 5.05 -0.1 6 -5.2zM66.825 177.5c3.825 4.3 9.175 33.975 9.25 33.975 4.575 3.9250000000000003 11.299999999999999 4.6000000000000005 16.924999999999997 3.9000000000000004a50.599999999999994 50.599999999999994 0 0 0 19.775 -6.949999999999999 0.725 0.725 0 0 0 0.22499999999999998 -0.525 71.5 71.5 0 0 0 -2.5 -18.400000000000002 0.15 0.15 0 0 0 -0.3 0c0.8999999999999999 6.1 1.675 12.1 2.125 18.25 -10.325 6.025 -25 10.149999999999999 -35.95 3.35 0 0 -5.3500000000000005 -30.55 -9.05 -33.8l5.525 -1.4749999999999999a11.075 11.075 0 0 0 11.200000000000001 8c0.42500000000000004 0.775 0.8500000000000001 1.55 1.3250000000000002 2.25 3.15 4.55 19.05 3.3000000000000003 24.5 2.5a31.875 31.875 0 0 0 9.200000000000001 -2.175A223.55 223.55 0 0 1 130 239.625a47.5 47.5 0 0 0 -15.85 6.025 46.275000000000006 46.275000000000006 0 0 0 -15.2 15 1.85 1.85 0 0 0 -0.75 -1.225c-3 -2.3499999999999996 -9.45 6.425 -16.599999999999998 3.525 -3.225 -1.3250000000000002 -26.200000000000003 -19.375 -26.375 -19.05l-1.075 1.9500000000000002A24.075000000000003 24.075000000000003 0 0 0 50 241.375c19.3 -9.725 17.975 -42.5 7.925 -61.150000000000006 2.875 -0.95 5.875 -1.7999999999999998 8.9 -2.725zM13.274999999999999 232.10000000000002c0.325 -19.275 12.2 -36.175000000000004 28.75 -45.324999999999996a86.175 86.175 0 0 1 15.225 -6.4 74.775 74.775 0 0 1 6.775 33.175c-0.525 10.725 -4.225 22.5 -14.725 27.5a10.825 10.825 0 0 0 -2.8249999999999997 -1.55A47.800000000000004 47.800000000000004 0 0 0 56.75 222.5s-0.15 -0.22499999999999998 -0.22499999999999998 0a62.125 62.125 0 0 1 -10.825 16.875c-0.275 0.325 3.15 2.325 4.35 3.4000000000000004a24.75 24.75 0 0 1 3.65 4.1A123.69999999999999 123.69999999999999 0 0 0 42 275 44.375 44.375 0 0 1 13.274999999999999 232.10000000000002zm49.349999999999994 206.275c-7.800000000000001 5.825 -13.475 2.3000000000000003 -15.225 0.875 -0.325 -2.7 -0.42500000000000004 -5.475 -0.9750000000000001 -8.149999999999999a44.2 44.2 0 0 0 16.575 2.5 75.25 75.25 0 0 0 -0.375 4.7749999999999995zm5.5 -34.300000000000004 -5 -100.95s1.1 -12.2 -24.4 -19.4a5.324999999999999 5.324999999999999 0 0 1 -2.8000000000000003 -4.699999999999999 53.175 53.175 0 0 1 0.4 -5.6499999999999995 33.650000000000006 33.650000000000006 0 0 0 5.525 2.3499999999999996c-0.3 1.225 -0.5750000000000001 2.5 -0.8 3.725a73.625 73.625 0 0 0 18 2.5 102.5 102.5 0 0 0 16.45 -2.8249999999999997c5.675 -1.1 11.375 0 16.975 -0.775 -10 19.6 -2.3000000000000003 56.050000000000004 30 73.075 -12.5 15.75 -6.925 27.775 -6.925 27.775l8.425 22.349999999999998zm62.699999999999996 29.625c-6.475 5 -11.274999999999999 2.275 -13.075000000000001 0.775 -0.4 -2.5 -0.625 -5 -1.1749999999999998 -7.5l14.6 -2.5c-0.22499999999999998 3.025 -0.35000000000000003 6.175000000000001 -0.35000000000000003 9.225zm1.35 -0.525c0 -0.4 -0.275 -5.949999999999999 -0.375 -8.75l0.775 -0.15 6.3 16.575a14.825 14.825 0 0 1 -6.7 -7.675zm289.3 -104.7 -23.525 0.375c-0.55 -1.075 -1.55 -2 -0.2 -3.075a66.39999999999999 66.39999999999999 0 0 0 10.175 -9.3c3.125 2.3000000000000003 8.35 0.55 11 -1.925a31.25 31.25 0 0 1 2.55 13.925zm-131.725 90.64999999999999h-6.4c1.25 -4.525 6.2250000000000005 -21.675 7.5 -25.75h7.1499999999999995c-0.22499999999999998 9.125 -1.675 19.650000000000002 -8.25 25.75zm-1.075 0.8999999999999999a24.375 24.375 0 0 1 -6.574999999999999 3.525l1.125 -4.1a51.375 51.375 0 0 0 5.45 0.55zm2.3000000000000003 -27.25c0.15 -0.55 0.325 -1.1 0.5 -1.6500000000000001a41.125 41.125 0 0 0 6.475 -1.875v2.9a49.55 49.55 0 0 0 -6.975 0.625zm10 -6.775a44.800000000000004 44.800000000000004 0 0 1 -8.8 3.025q3.825 -12.5 7.675 -25h13.525a66.975 66.975 0 0 1 -12.475000000000001 21.974999999999998zm6.8999999999999995 6.375a114.475 114.475 0 0 0 -8.825 -0.25v-3.375c1.05 -0.5 2.05 -1.05 3 -1.625zm5.85 -29.424999999999997c-4.575 0 -9.15 0.15 -13.700000000000001 0.42500000000000004 2.3000000000000003 -7.5 4.55 -15 6.7 -22.5a123.225 123.225 0 0 0 12.9 0 160.22500000000002 160.22500000000002 0 0 1 -5.9750000000000005 22.075zm1.45 0.15c6.5249999999999995 -0.22499999999999998 23.825 0.95 28.424999999999997 0.675 0.275 0 0.325 0.4 0 0.44999999999999996 -4.525 0.875 -21.9 0 -28.5 -0.6a0.5 0.5 0 0 0 -0.1 -0.525zm4.575 -23.1c-5 -0.4 -21.575000000000003 0 -26.475 0.15a60.675 60.675 0 0 0 -0.4 -8.675c5 0.625 23.3 0 28.4 -0.25 -0.44999999999999996 2.8000000000000003 -0.95 5.725 -1.525 8.774999999999999zm2.0250000000000004 -9.200000000000001c6.1 -0.725 28.375 -0.525 34.25 -0.5750000000000001a0.375 0.375 0 0 1 0 0.725c-5.699999999999999 0 -28.25 0.75 -34.375 0.125a0.55 0.55 0 0 0 0.125 -0.35000000000000003zm31.175 -5.2c3.05 -3.25 10 -7.275 11.45 -8.675 0.95 1.4249999999999998 2.725 1.45 4.325 1.55a18.174999999999997 18.174999999999997 0 0 0 8.05 -1.4000000000000001 70.175 70.175 0 0 1 1.2 12.125l-21.150000000000002 0.42500000000000004c-1.3250000000000002 -1.35 -2.45 -2.7 -3.875 -4.1zm9.6 -17.125 15.45 0.22499999999999998c-0.44999999999999996 2.5 -0.8250000000000001 5 -1.075 7.5 -3.125 1.275 -9.725 2.9749999999999996 -12.5 0a66.72500000000001 66.72500000000001 0 0 0 -1.925 -7.800000000000001zm16.200000000000003 0.22499999999999998h3.025l5.324999999999999 -33 -11.5 -35c-5.8 -15.35 -5.6000000000000005 -37.400000000000006 -5.6000000000000005 -37.400000000000006h-0.275a27.174999999999997 27.174999999999997 0 0 1 -11.45 -15c0 -0.475 0.35000000000000003 0 0.35000000000000003 0C363.275 198.9 370 202.5 370 202.5l0.25 -7.5c0.725 -0.95 0.675 1.55 0.675 1.55 0 27.349999999999998 3.65 36.925 3.65 36.925l25 77.275 5.225 -1.3c0.8500000000000001 2.225 2.75 6.6000000000000005 2.725 6.625 -1.35 2.3000000000000003 -8.924999999999999 7.9 -10.3 9.275a2.725 2.725 0 0 0 -0.3 3.5999999999999996l-18.375 0.35000000000000003c0.125 -4.074999999999999 -1.675 -13.149999999999999 0.2 -20.674999999999997zm-32.5 -105.3a51.125 51.125 0 0 1 -10.525 -8.4 360.79999999999995 360.79999999999995 0 0 1 0.275 -47.5c3.025 0 6.075 -0.3 9.1 -0.525 0.4 8.375 1.5 16.725 2.15 25 -0.125 7.25 -0.725 28.525 -1 31.349999999999998zm1.75 -33.55c-0.525 -7.675 -1.375 -15.375 -2.3499999999999996 -22.95 3.125 -0.25 18.925 -1.6 23.675 -2.375 0.5750000000000001 3.875 2.5 18.05 3.5749999999999997 25.674999999999997a57.975 57.975 0 0 1 -24.900000000000002 -0.42500000000000004zm70.175 136.3c0 2.5 0.525 7.675 0.475 7.725a9.775 9.775 0 0 1 -10.5 2.5s-1.6500000000000001 -4.725 -2.7750000000000004 -6.8999999999999995zM377.25 46.95a7.5 7.5 0 0 1 3.25 2.5 8.299999999999999 8.299999999999999 0 0 1 -3 7.8500000000000005 5 5 0 0 1 -3.125 0 16.15 16.15 0 0 0 2.875 -10.35zm-5.8999999999999995 13.700000000000001a17.975 17.975 0 0 0 2.5 -2.8000000000000003 3.55 3.55 0 0 0 2.5 0.55 22.025000000000002 22.025000000000002 0 0 0 0.17500000000000002 18.025 77.95 77.95 0 0 0 -8.375 0c0.5 -3.05 1.4249999999999998 -13.35 1.4000000000000001 -16.1zm-32.5 -0.125a6.875 6.875 0 0 1 -1.3250000000000002 -6.45 6.1 6.1 0 0 1 2.9499999999999997 -3.8c2.3000000000000003 -0.8 3.175 2.9749999999999996 3.2750000000000004 4.3a11.75 11.75 0 0 1 0 2.3000000000000003 14.05 14.05 0 0 1 -0.5750000000000001 2.925 2.7750000000000004 2.7750000000000004 0 0 1 -4.325 0.725zm14.075 18.5a0.275 0.275 0 0 0 0 -0.525A29.474999999999998 29.474999999999998 0 0 0 352.5 72.5c0 -0.15 -0.42500000000000004 -0.25 -0.5 -0.25a8.2 8.2 0 0 1 -7.725 -4.125 42.875 42.875 0 0 1 -1.6500000000000001 -6.15 5.2749999999999995 5.2749999999999995 0 0 0 1.7999999999999998 -4.275 0.9750000000000001 0.9750000000000001 0 0 1 1.375 0 5.225 5.225 0 0 0 4.2 5c5.5 0.625 5.6499999999999995 -13.4 -0.44999999999999996 -12.95 -2.5 0.17500000000000002 -3.975 4.25 -3.8 7.199999999999999a1.6500000000000001 1.6500000000000001 0 0 0 -1.25 0 18.575 18.575 0 0 0 -0.22499999999999998 -3.2c-0.25 -1.45 -1.275 -3.85 -2.8249999999999997 -4.225l3.625 0.25 1.5 -7.925 1.575 7.925 2.925 -0.325 0.15 -5.675 1.4000000000000001 5.75h1.4249999999999998l0.625 -1.7249999999999999 0.3 1.975 6.05 0.475s2.15 1.925 0.95 6.574999999999999c0 0 1.875 -2.25 2.3499999999999996 -2.875s4.050000000000001 -2.75 4.65 1.2 -1.675 4.65 -1.675 4.65l2.0250000000000004 0.375a58.224999999999994 58.224999999999994 0 0 0 -1.525 16.475 0.3 0.3 0 0 0 0.4 0.22499999999999998 88.65 88.65 0 0 0 8.95 0.44999999999999996s18.1 2.3000000000000003 23.375 13.875a54.15 54.15 0 0 1 5 13.85c2.7 16.075 13.85 76.6 15.674999999999999 92.175 -0.6 0.25 -2.5 1.3 -4.050000000000001 2.15 -17.25 7.7 -36.25 7.95 -38.224999999999994 7.5s-1.925 -4.8 -1.925 -4.8c0 -5.6499999999999995 -2.8499999999999996 -32.225 -2.8499999999999996 -32.225h-0.17500000000000002a157.65 157.65 0 0 0 -4.125 -25.5c20.75 -3.5 30.724999999999998 -18.825 29.55 -32.65a0.3 0.3 0 0 0 -0.6 0 31.825000000000003 31.825000000000003 0 0 1 -24 30.75 132.125 132.125 0 0 1 -22.825000000000003 3.25c-5.3500000000000005 0.525 -21.075 1.3250000000000002 -23.450000000000003 1.4000000000000001 -0.7000000000000001 -4.725 -0.925 -9.549999999999999 -1.775 -14.25 40 -15.225 39.075 -13.875 39 -14.5 -0.7000000000000001 -6.2749999999999995 -2.3499999999999996 -25.375 4.475 -38.25 0.22499999999999998 -0.44999999999999996 -0.25 -0.95 -0.55 -0.5750000000000001a34.8 34.8 0 0 0 -3.4499999999999997 6.475 8.149999999999999 8.149999999999999 0 0 1 -10.8 3.2750000000000004 7.175000000000001 7.175000000000001 0 0 1 -4.35 -4.275 11.274999999999999 11.274999999999999 0 0 1 0 -5c0 -0.22499999999999998 -0.3 -0.25 -0.375 0a7.5 7.5 0 0 0 5 10.2 8.5 8.5 0 0 0 10.825 -3.2750000000000004 87.5 87.5 0 0 0 -1.225 31c-0.5 0.625 -15.9 5.3500000000000005 -22.125 7.5a250.85000000000002 250.85000000000002 0 0 1 3.2 -44.050000000000004s4.3 -1.525 6.550000000000001 -2.3499999999999996zm-6.2749999999999995 -22.825000000000003c0.125 -2.5 0.8999999999999999 -5.475 3.125 -5.75 4.65 -0.2 4.275 14.025 -1.3250000000000002 10.674999999999999a5.8999999999999995 5.8999999999999995 0 0 1 -1.7999999999999998 -4.925zm-32.5 83.625a14.05 14.05 0 0 0 3.7 0.65c0.275 0 0.3 -0.375 0 -0.475 -1.975 -0.625 -5 -0.35000000000000003 -5.6000000000000005 -2.8000000000000003a12.649999999999999 12.649999999999999 0 0 0 5.675 0.675c0.25 0 0.15 -0.42500000000000004 0 -0.42500000000000004a11.65 11.65 0 0 1 -6.2749999999999995 -1.225c-3.1 -3.75 6.5249999999999995 -1.1 6.625 -0.9750000000000001s0.35000000000000003 0 0.325 -0.2c0 -0.625 -1.4749999999999999 -5.2 -0.17500000000000002 -4.525s2.5 2.8499999999999996 3.225 3.2750000000000004a9.175 9.175 0 0 0 4.7749999999999995 0.8250000000000001c0 1.7000000000000002 0.375 5.15 0.35000000000000003 5.175a35 35 0 0 1 -5.225 2.375c-2.125 0.625 -6.25 0.325 -7.325 -2.3499999999999996zm-20.75 -49.675000000000004c7.95 4.525 16 8.85 23.95 13.4a8.425 8.425 0 0 0 -0.475 0.8c0 0.17500000000000002 0.17500000000000002 0.42500000000000004 0.325 0.25a84.65 84.65 0 0 1 15.600000000000001 -15.9 62.75 62.75 0 0 1 13.174999999999999 -7.075c-2.5 4.699999999999999 -4.125 36.5 -3.5749999999999997 44.225 -2.6500000000000004 0.9750000000000001 -5.300000000000001 1.975 -7.9 3.025 -0.4 -7.9 0 -15.649999999999999 0.25 -23.55 0 -0.2 -0.325 -0.25 -0.35000000000000003 0a91.95 91.95 0 0 0 -0.525 23.875c-2.5 1.05 -5 2.15 -7.5 3.35 -0.17500000000000002 0 0 1.1 0 1.45a28.900000000000002 28.900000000000002 0 0 1 -3.3000000000000003 -0.3c-2.05 -0.475 -2.5 -1.925 -3.9000000000000004 -3.325s-1.975 0 -1.875 1.45a6.5249999999999995 6.5249999999999995 0 0 0 0.525 2.7750000000000004 8.175 8.175 0 0 0 -1.375 -0.5 0.3 0.3 0 0 0 0 -0.325c-0.5750000000000001 -1.825 -2.375 -6.550000000000001 -4.1 -10.75a26.875 26.875 0 0 0 20.55 6.2250000000000005c0.6 0 0.6 -1.05 0 -0.9750000000000001a29.424999999999997 29.424999999999997 0 0 1 -20.674999999999997 -5.775c-1.225 -2.9499999999999997 -2.5 -5.575 -2.9749999999999996 -6.625 0 0 -0.5 -0.35000000000000003 -0.725 -0.275 -1.575 0.525 -3.15 1 -4.725 1.5a0.4 0.4 0 0 0 -0.25 -0.42500000000000004c-5.825 -1.6500000000000001 -9.6 -6.475 -14.275 -10l-0.3 -0.75a91.1 91.1 0 0 1 4.5 -15.774999999999999zm-3.875 17.2c2.75 2.8000000000000003 8.325 8.075 13.5 9.825000000000001 -2.8000000000000003 0.8500000000000001 -5.6000000000000005 1.6500000000000001 -8.425 2.5zm-4.25 -17.9a13.725000000000001 13.725000000000001 0 0 0 5.9750000000000005 4.65 54.1 54.1 0 0 0 -2.8499999999999996 10.525c-3.4749999999999996 -8.375 -7.275 -17.275 -10.275 -24.474999999999998 4.175 -0.675 5.75 6.875 7.2250000000000005 9.3zm12.75 38.4L294.85 120c5.375 -1.075 14.075 -3.675 14.1 -3.7 0.8 3.1 5.425 14.575 6.825 17.5a22.25 22.25 0 0 0 -3.5 -0.42500000000000004c-0.9750000000000001 0 -2.0250000000000004 0.22499999999999998 -1.975 1.4000000000000001a2.625 2.625 0 0 0 1.7999999999999998 2.2c-0.5750000000000001 0.8250000000000001 0.22499999999999998 1.75 0.95 2.2a4.575 4.575 0 0 0 0.6 0.325c0.275 2.3499999999999996 2.5 3.2 4.675000000000001 3.55a5.925000000000001 5.925000000000001 0 0 0 1.3250000000000002 0c2.0250000000000004 5.300000000000001 4.4 10.4 6.05 15.825 -5 2.275 -10.275 4.074999999999999 -15 6.675 -0.6 -2.5 -1.225 -4.8 -1.875 -7.175000000000001a251.42499999999998 251.42499999999998 0 0 0 -10.725 -30.525000000000002zm22.5 100.7a377.875 377.875 0 0 0 -9.825000000000001 -62.5 87.675 87.675 0 0 0 15.3 -6.324999999999999c0.2 0 0.4 -0.625 0.3 -0.725a78.775 78.775 0 0 0 -6.05 -15.95 24.15 24.15 0 0 0 6.725 -2.7c0.3 2.275 0.7000000000000001 4.55 1.075 6.800000000000001 0 0 0 0.22499999999999998 0.15 0.22499999999999998h7.1499999999999995A280.525 280.525 0 0 0 335 195a0.25 0.25 0 0 0 0 0.2 54.275000000000006 54.275000000000006 0 0 0 8.45 7.5c-0.55 50.199999999999996 16.525000000000002 105.60000000000001 16.525000000000002 105.60000000000001h1.875a43.025000000000006 43.025000000000006 0 0 0 1.6500000000000001 7.7749999999999995c-1.9500000000000002 1.975 -8.85 6.2 -11.35 8.95 -12.325 -12.225 -24.4 -23.799999999999997 -27.349999999999998 -26.65 -0.6 -23.25 -2.3000000000000003 -46.550000000000004 -4.225 -69.825zm-101.75 193.325c-7.199999999999999 -5 -7.5 -11.799999999999999 -14.625 -33 1.375 0.35000000000000003 33.275 6.45 40.599999999999994 7.025 0.8500000000000001 11.55 1.675 23.025000000000002 2.5 33.25 -9.75 -0.2 -20.6 -1.7999999999999998 -28.475 -7.275zM257.5 319.20000000000005s-0.8250000000000001 -6.875 -9.200000000000001 -6.875 -8.95 9.6 -8.95 9.6 2.5 36.475 5.25 72.69999999999999c-6.775 -0.5 -41.925 -6.45 -45.425000000000004 -8.525 -17.5 -18.95 -21.974999999999998 -61.675000000000004 -23.1 -79.825 0 -5.4 -0.55 -10.8 -0.5750000000000001 -16.200000000000003s0.275 -10.525 0.65 -15.8 0.8 -10.35 1.3 -15.5c46.725 -15.575000000000001 96.55 -13.575 144.14999999999998 -3 0 1.825 2.0749999999999997 32.675 2.5 46.275000000000006 0 0 -0.925 15.975 -2.75 28.3 -5 0.25 -24.1 0.22499999999999998 -29.075000000000003 0.8 -0.2 0 0.2 7.5 0.2 9.225 0 0.15 0.3 0.4 0.375 0.4 4.375 0.2 8.774999999999999 0.2 13.174999999999999 0.2 -2.9749999999999996 8.45 -8.7 27.349999999999998 -14.850000000000001 48.425000000000004a206.175 206.175 0 0 1 -33.3 5.6000000000000005zm0.475 109.57499999999999v-32.5a218.1 218.1 0 0 0 32.7 -5c-3.125 10.725 -6.35 21.9 -9.350000000000001 32.5a104.17500000000001 104.17500000000001 0 0 1 -23.3 5zm60.125 21.05s-36.125 -0.5 -43.150000000000006 -0.275q3.3000000000000003 -12.25 6.7 -24.474999999999998a27.75 27.75 0 0 0 8.65 -5c12.775 0.775 36.075 1.1500000000000001 36.125 1.1500000000000001 -2.1 7.075 -7.5 26.125 -8.275 28.599999999999998zm11.375 -37.75c-1.025 2.8249999999999997 -3.05 8.375 -3.225 8.375 -5.575 0 -23.55 -0.925 -35 -1.275 5.775 -5.85 7.25 -17.7 7.5 -25.9 11.6 -0.17500000000000002 9.05 0.375 10 0l20.65 18.675s0.125 0.1 0.125 0.125zm11.7 -35.475c-3.525 11.65 -7 23.4 -11.15 34.825 -0.17500000000000002 0.5 -0.925 0.3 -0.775 -0.2 1.7000000000000002 -5.525 3.4749999999999996 -11.025 5.2749999999999995 -16.525000000000002a120.775 120.775 0 0 1 -25.325000000000003 -1.6500000000000001 0.6 0.6 0 0 0 0 -0.35000000000000003c8.5 0 17.05 1.125 25.575000000000003 1.1500000000000001 1.875 -5.825 3.75 -11.65 5.5 -17.5 3.525 -11.625 6.35 -23.575 10.3 -35 0 -0.2 0.35000000000000003 0 0.3 0 -2.275 11.899999999999999 -6.15 23.650000000000002 -9.65 35.25zm25 -36.025c-7.5 0.8 -38.425 0.35000000000000003 -46.1 0a0.2 0.2 0 0 1 -0.2 0 0.8250000000000001 0.8250000000000001 0 0 0 0 -0.35000000000000003 0.375 0.375 0 0 1 0.17500000000000002 0c7.675 -0.25 38.55 -0.7000000000000001 46.1 0a0.17500000000000002 0.17500000000000002 0 0 1 0.1 0.35000000000000003zm0.725 -0.675c-2.9749999999999996 -3.075 -6.2250000000000005 -6.375 -9.525 -9.675 18.2 0.725 85 -1.4000000000000001 101.975 -1.2 -0.275 1.375 -0.65 7.7749999999999995 -0.7000000000000001 9.549999999999999 -15.625 0.15 -83.65 0.725 -91.67500000000001 1.4249999999999998zm61.775000000000006 87.325c-2.125 -6.75 -23.925 -75.625 -27.9 -86.525l41.224999999999994 -0.7000000000000001c3.825 10.375 27.5 78.725 30 86.27499999999999 -14.350000000000001 0.25 -28.849999999999998 0.15 -43.25 0.95z" stroke-width="2.5"></path><path d="M188.4 262.65a1.7999999999999998 1.7999999999999998 0 0 0 0 3.5999999999999996 1.7999999999999998 1.7999999999999998 0 0 0 0 -3.5999999999999996zm17.2 -3a1.75 1.75 0 0 0 3.5 0 1.75 1.75 0 0 0 -3.5 0zM231.02499999999998 255a1.7999999999999998 1.7999999999999998 0 1 0 1.7999999999999998 1.7999999999999998 1.7999999999999998 1.7999999999999998 0 0 0 -1.7999999999999998 -1.7999999999999998zm24.1 -1.975a1.875 1.875 0 1 0 1.875 1.875 1.875 1.875 0 0 0 -1.875 -1.875zm26.05 1.3250000000000002a1.975 1.975 0 1 0 1.975 1.975 1.975 1.975 0 0 0 -1.975 -1.975zm28.55 8.774999999999999a2.125 2.125 0 1 0 -2.125 -2.125 2.125 2.125 0 0 0 2.125 2.125z" stroke-width="2.5"></path></g></svg>